<svg width="32" height="32" viewBox="0 0 32 32" fill="none" xmlns="http://www.w3.org/2000/svg">
  <!-- Dark background like terminal -->
  <rect width="32" height="32" rx="4" fill="#0f172a"/>

  <!-- Terminal window header -->
  <rect width="32" height="6" rx="4" fill="#1e293b"/>
  <circle cx="4" cy="3" r="1.5" fill="#ef4444" opacity="0.8"/>
  <circle cx="8" cy="3" r="1.5" fill="#f59e0b" opacity="0.8"/>
  <circle cx="12" cy="3" r="1.5" fill="#10b981" opacity="0.8"/>

  <!-- Terminal prompt symbol > with glow effect -->
  <defs>
    <filter id="glow">
      <feGaussianBlur stdDeviation="1" result="coloredBlur"/>
      <feMerge>
        <feMergeNode in="coloredBlur"/>
        <feMergeNode in="SourceGraphic"/>
      </feMerge>
    </filter>
  </defs>

  <!-- Command prompt -->
  <text x="5" y="19" font-family="monospace" font-size="10" font-weight="700" fill="#22d3ee" filter="url(#glow)">&gt;</text>

  <!-- Initials RA as command -->
  <text x="12" y="19" font-family="monospace" font-size="10" font-weight="600" fill="#a5f3fc">RA</text>

  <!-- Cursor blink -->
  <rect x="24" y="12" width="1.5" height="10" fill="#22d3ee" opacity="0.9"/>

  <!-- Small cloud icon in corner -->
  <path d="M26 25c1.1 0 2-.9 2-2 0-.7-.4-1.3-.9-1.7.1-.2.1-.4.1-.6 0-1.1-.9-2-2-2-.3 0-.5.1-.8.2-.4-.6-1.1-1-1.9-1-1.2 0-2.2 1-2.2 2.2 0 .2 0 .3.1.5-.6.3-1 1-1 1.7 0 1.1.9 2 2 2h4.6z" fill="#60a5fa" opacity="0.7"/>
</svg>
